<svg width="21" height="21" viewBox="0 0 21 21" fill="none" xmlns="http://www.w3.org/2000/svg">
<path d="M10.2918 13.0981C10.2073 13.0981 10.1299 13.084 10.0595 13.0558C9.98904 13.0277 9.91863 12.9784 9.84823 12.908L5.66593 8.72566C5.5392 8.59893 5.47583 8.45107 5.47583 8.28209C5.47583 8.11311 5.5392 7.96525 5.66593 7.83851C5.79267 7.71178 5.94405 7.64841 6.12007 7.64841C6.29609 7.64841 6.44747 7.71178 6.57421 7.83851L10.2918 11.5561L14.0094 7.83851C14.1361 7.71178 14.284 7.64841 14.453 7.64841C14.622 7.64841 14.7698 7.71178 14.8965 7.83851C15.0233 7.96525 15.0867 8.11663 15.0867 8.29265C15.0867 8.46867 15.0233 8.62005 14.8965 8.74679L10.7354 12.908C10.665 12.9784 10.5946 13.0277 10.5242 13.0558C10.4537 13.084 10.3763 13.0981 10.2918 13.0981Z" fill="#213D77"/>
</svg>
